# xmcd CD database file
#
# Track frame offsets:
#	150
#	27718
#	45427
#	66486
#	96213
#
# Disc length: 1303 seconds
#
# Revision: 0
# Processed by: cddbd v1.5.2PL0 Copyright (c) Steve Scherf et al.
# Submitted via: CDex 1.70beta2
#
DISCID=42051505
DTITLE=Laura Sippola - Mieli
DYEAR=2008
DGENRE=Jazz
TTITLE0=Koko väki koossa
TTITLE1=Harakat haaskalla
TTITLE2=Kaunis mieli
TTITLE3=Pieni ja hento ote
TTITLE4=Outro
EXTD=YEAR: 2008
EXTT0=
EXTT1=
EXTT2=
EXTT3=
EXTT4=
PLAYORDER=
